<svg width="35" height="35" viewBox="0 0 35 35" fill="none" xmlns="http://www.w3.org/2000/svg">
<path fill-rule="evenodd" clip-rule="evenodd" d="M0.333008 15.3552C0.333008 15.5474 0.389609 15.6743 0.421328 15.7976C0.628047 16.5996 1.07238 17.2878 1.59957 17.9156C2.35043 18.8103 3.27 19.5305 4.21199 20.2079C5.02902 20.7952 5.86273 21.3694 6.68305 21.9524C6.82387 22.0525 6.95703 22.1676 7.10988 22.2904C6.97836 22.3614 6.86898 22.4241 6.75523 22.4818C5.6727 23.0308 4.63117 23.6463 3.67113 24.392C3.09254 24.8415 2.53309 25.3192 2.13797 25.9435C1.50223 26.9475 1.27719 28.0172 1.75105 29.1594C1.88941 29.493 2.10051 29.7812 2.39828 29.9942C2.4948 30.0631 2.60309 30.1314 2.71602 30.1582C3.00531 30.2263 3.30008 30.2709 3.59293 30.3248L4.42227 30.3242C5.33938 30.2425 6.17418 29.9283 6.92859 29.4077C8.10766 28.5939 8.90199 27.5029 9.24352 26.1026C9.4918 25.0849 9.50191 24.0661 9.20934 23.053C9.18133 22.9591 9.14903 22.8666 9.11254 22.7757C9.07699 22.6846 9.03516 22.5961 8.98594 22.4826L10.8661 21.4014L10.8943 21.4255C10.8601 21.5373 10.8237 21.6489 10.7928 21.7618C10.5694 22.5777 10.4209 23.4079 10.4743 24.2547C10.5311 25.1571 10.783 26.0017 11.3112 26.7556C11.7384 27.3654 12.7561 27.388 13.21 26.7761C13.3711 26.5587 13.5272 26.3315 13.6445 26.0889C13.951 25.4559 14.2348 24.8117 14.5277 24.1719L14.5788 24.0548C14.5578 24.3578 14.5332 24.6239 14.522 24.8902C14.5045 25.3061 14.5288 25.7195 14.671 26.1152C14.7927 26.4537 14.9996 26.7066 15.3874 26.7512C15.6526 26.7816 15.864 26.6602 16.0589 26.5062C16.361 26.2675 16.6113 25.9699 16.7948 25.6315C17.3146 24.6769 17.8483 23.7281 18.3195 22.7495C18.8291 21.691 19.2748 20.6016 19.7482 19.5251L19.8264 19.3342C19.9382 19.7736 20.0161 20.204 20.1597 20.6114C20.3265 21.0842 20.5329 21.5458 20.7577 21.9945C20.8641 22.2064 20.8518 22.3439 20.7044 22.5217C20.0875 23.2654 19.4813 24.0182 18.8745 24.7702C18.7403 24.9361 18.6066 25.1051 18.4947 25.2864C18.4269 25.4009 18.3823 25.5276 18.3635 25.6594C18.3447 25.7807 18.3735 25.9045 18.444 26.005C18.5145 26.1055 18.6212 26.1748 18.7416 26.1983C18.9847 26.2507 19.234 26.2684 19.4821 26.2511C20.3289 26.1887 21.0979 25.8915 21.7776 25.3879C22.6584 24.7354 22.9411 23.8451 22.7278 22.7899C22.6701 22.5036 22.5681 22.2253 22.4689 21.9494C22.4243 21.825 22.4213 21.7377 22.5025 21.6218C23.2066 20.6164 23.8082 19.5497 24.3676 18.4584C24.3898 18.4155 24.4125 18.3725 24.4513 18.3266C24.6326 19.27 24.9055 20.1791 25.3944 21.0041C25.145 21.2445 24.8981 21.4624 24.6747 21.7025C24.1828 22.2313 23.7562 22.8055 23.5336 23.5058C23.4379 23.8077 23.3644 24.1145 23.407 24.4368C23.4732 24.9375 23.8834 25.2629 24.3758 25.1489C25.4296 24.905 26.3394 24.4084 27.0041 23.5287C27.4514 22.9365 27.4922 22.2759 27.3049 21.5838C27.2535 21.3957 27.1925 21.2105 27.1269 20.9948C27.3869 20.9141 27.6404 20.8173 27.9026 20.7575C29.2641 20.4468 30.6107 20.501 31.9227 20.9926C32.6886 21.2797 33.3074 21.7602 33.6743 22.5159C34.1225 23.4399 33.8748 24.3165 33.0039 24.9006C32.9227 24.955 32.8297 24.9979 32.7624 25.066C32.7409 25.091 32.7248 25.1202 32.7151 25.1517C32.7055 25.1833 32.7025 25.2165 32.7064 25.2492C32.7121 25.2829 32.801 25.325 32.8521 25.3244C33.1384 25.3222 33.3705 25.1721 33.5934 25.0179C34.1518 24.6315 34.5592 24.1117 34.647 23.4273L34.6642 23.3759L34.6431 22.9302C34.6346 22.9045 34.6494 22.8791 34.6475 22.8596C34.5288 21.863 33.9964 21.09 33.2221 20.484C32.3252 19.7827 31.2662 19.4939 30.1462 19.4482C29.2378 19.4092 28.3306 19.5488 27.4761 19.8592C27.2308 19.9481 26.9877 20.0534 26.7411 20.1526C26.708 20.0927 26.6724 20.0353 26.6432 19.976C26.39 19.4575 26.0832 18.9621 26.0154 18.3676C25.9672 17.9454 25.9082 17.5238 26.0085 17.1063C26.105 16.7046 26.2308 16.3097 26.3492 15.9135C26.4102 15.7095 26.3673 15.5952 26.1726 15.5034C26.1047 15.4695 26.0323 15.4458 25.9577 15.4328C25.4791 15.3634 25.0072 15.403 24.5437 15.5378C24.3796 15.5857 24.2604 15.6775 24.2241 15.8591C24.2033 15.9633 24.1609 16.0631 24.1314 16.1659C24.0102 16.5933 23.9244 17.0289 23.7286 17.436C23.238 18.4573 22.678 19.44 22.1049 20.4157C22.0429 20.5209 21.9775 20.6243 21.8993 20.752C21.698 20.3309 21.4834 19.953 21.4183 19.51C21.3448 19.0091 21.2868 18.509 21.4115 18.0119C21.5042 17.6411 21.6253 17.2771 21.7369 16.9113C21.7896 16.7374 21.7653 16.6461 21.6078 16.5545C21.5282 16.5082 21.4383 16.4672 21.3486 16.4538C20.8579 16.3791 20.3566 16.4201 19.8846 16.5736C19.7361 16.6217 19.6582 16.7177 19.6128 16.8708C19.4794 17.3225 19.3656 17.7852 19.1783 18.2148C18.4198 19.9538 17.6394 21.6839 16.8598 23.4136C16.6971 23.7748 16.5066 24.1235 16.3231 24.4751C16.2766 24.5643 16.2088 24.6427 16.1508 24.7264C16.1043 24.6714 16.0863 24.6337 16.0866 24.596C16.0879 24.3737 16.0614 24.1448 16.1038 23.9299C16.2339 23.2799 16.3778 22.6327 16.5353 21.9888C16.6638 21.4566 16.8134 20.9295 16.9558 20.4009C17.0037 20.224 17.0045 20.0586 16.8773 19.9098C16.6638 19.6607 16.2175 19.606 15.9529 19.798L15.8358 19.8641L15.8585 19.6755C15.9143 19.2711 15.9255 18.868 15.8145 18.4696C15.6761 17.973 15.3218 17.6873 14.8066 17.7032C14.5665 17.7105 14.3144 17.7516 14.0921 17.8391C13.1572 18.2055 12.4384 18.8543 11.8264 19.635C11.7697 19.7075 11.6994 19.7682 11.6194 19.8138C10.8284 20.2524 10.0348 20.6855 9.2416 21.1203L8.35867 21.604C8.12187 21.3782 7.90668 21.1438 7.6625 20.945C6.91684 20.3369 6.15914 19.7438 5.40828 19.1425C4.74273 18.6096 4.09797 18.0545 3.60469 17.3488C3.23773 16.8238 3.00121 16.2493 2.97852 15.6002C2.9498 14.773 3.18441 14.0172 3.60551 13.3137C4.14418 12.4135 4.87891 11.6911 5.68664 11.0368C6.54113 10.345 7.46535 9.75762 8.4232 9.22141C9.76332 8.47137 11.1417 7.80746 12.6196 7.36914C14.135 6.91961 15.6726 6.6623 17.2585 6.84168C17.882 6.91223 18.4873 7.05496 19.0432 7.35984C19.469 7.59309 19.8182 7.89852 19.9806 8.37594C20.1408 8.8457 20.1359 9.32176 20.0249 9.79891C19.7993 10.7652 19.2702 11.5618 18.6044 12.2735C17.5123 13.4403 16.1801 14.2346 14.6803 14.7593C13.8179 15.0614 12.9207 15.2528 12.0102 15.3289C11.2639 15.3915 10.5333 15.3254 9.82676 15.0659C9.35891 14.8939 8.95148 14.6308 8.62391 14.2491C8.56539 14.1807 8.49047 14.1066 8.38137 14.1706C8.27445 14.2335 8.25559 14.3352 8.29141 14.4383C8.35129 14.6095 8.40652 14.7878 8.49977 14.9409C8.7341 15.3251 9.0759 15.6037 9.45215 15.8427C10.1748 16.3023 10.9826 16.4568 11.8201 16.4927C13.0911 16.5476 14.3311 16.3579 15.5536 16.0169C17.299 15.5302 18.8166 14.6705 20.0336 13.3142C21.047 12.1849 21.7708 10.9104 21.9258 9.37152C22.0016 8.62039 21.9209 7.88457 21.5693 7.19934C21.1878 6.45695 20.5813 5.90488 19.8562 5.52453C18.8002 4.97082 17.6605 4.64844 16.4841 4.64844H15.3056C13.881 4.64844 12.5037 5.05668 11.165 5.54367C10.1516 5.91254 9.15793 6.34785 8.19324 6.82965C6.09242 7.87937 4.13598 9.14512 2.52898 10.8855C1.72836 11.7526 1.05051 12.7094 0.660586 13.8359C0.5429 14.1723 0.441519 14.5141 0.356797 14.8602M7.96902 24.7075C7.87797 25.9268 7.32535 26.9153 6.42219 27.7159C5.91414 28.166 5.33145 28.4864 4.65277 28.5991C4.40668 28.6398 4.15484 28.6497 3.91613 28.5477C3.5757 28.4022 3.49941 28.1001 3.49285 27.7782C3.48273 27.2653 3.66238 26.8015 3.90875 26.3602C4.23031 25.7849 4.70172 25.3463 5.20512 24.9367C5.99809 24.2911 6.85832 23.7448 7.73934 23.2291L7.80578 23.2017C7.94195 23.7048 8.00676 24.2017 7.96902 24.7075ZM14.8482 19.4086C14.7839 19.798 14.7035 20.1876 14.5898 20.565C14.1966 21.8712 13.6915 23.1369 13.1455 24.3857C13.0446 24.6168 12.8977 24.8276 12.77 25.0466C12.7483 25.0803 12.7223 25.111 12.6927 25.1379C12.5346 25.2941 12.3848 25.2859 12.3049 25.0816C12.212 24.8443 12.1548 24.5902 12.1056 24.3389C12.0725 24.1702 12.0804 23.993 12.07 23.8202C12.0807 22.5914 12.4556 21.4747 13.0916 20.4351C13.3538 20.0063 13.6393 19.5978 14.0754 19.3266C14.2111 19.2422 14.3579 19.1772 14.5116 19.1335C14.744 19.0682 14.8867 19.1756 14.8482 19.4086ZM19.5414 25.3881L21.2283 23.4186C21.2986 24.15 20.0552 25.6102 19.5414 25.3881ZM24.929 24.0628C24.8098 24.1311 24.6799 24.1804 24.5577 24.2435C24.4458 24.3015 24.4089 24.243 24.4056 24.1467C24.404 24.0801 24.4126 24.0136 24.4311 23.9496C24.6588 23.1462 25.078 22.4604 25.7017 21.9026L25.7455 21.8802C26.0421 22.7101 25.6993 23.6214 24.929 24.0628Z" fill="white"/>
</svg>
