<svg width="26" height="25" viewBox="0 0 26 25" fill="none" xmlns="http://www.w3.org/2000/svg">
<path d="M13.2679 21.1003C13.0951 21.0632 12.927 21.0117 12.7584 20.9642L12.6313 20.9274C12.4668 20.8794 12.3031 20.8287 12.1404 20.7753L12.073 20.7521C11.9279 20.7033 11.7835 20.6523 11.6401 20.5992L11.5186 20.5537C11.3617 20.4947 11.2055 20.433 11.0515 20.3686L10.9582 20.3293C10.8261 20.2724 10.6947 20.2142 10.5639 20.1546L10.45 20.1025C10.3475 20.055 10.2461 20.0045 10.1451 19.9548C10.0774 19.9208 10.0086 19.8888 9.94156 19.8534C9.81855 19.7904 9.69671 19.7253 9.57609 19.6582L9.45274 19.5926C9.2925 19.5026 9.13385 19.41 8.97687 19.3149L8.84851 19.2334C8.73433 19.1637 8.6214 19.0922 8.50976 19.0189L8.4006 18.946C8.2931 18.8735 8.18637 18.8001 8.08043 18.7255L7.93871 18.6234C7.84144 18.5529 7.74515 18.4812 7.64985 18.4083L7.52107 18.3099C7.3998 18.2151 7.27984 18.1188 7.16124 18.0211L7.122 17.9895C6.99422 17.8822 6.86814 17.773 6.74381 17.6621L6.63736 17.5645C6.54532 17.481 6.45474 17.3969 6.36561 17.3106L6.25917 17.2095C6.14605 17.0992 6.03479 16.9872 5.92543 16.8735L5.90915 16.8568C5.79399 16.7367 5.68119 16.6145 5.57082 16.4903L5.48233 16.3901C5.39976 16.2956 5.31856 16.2001 5.23875 16.1035L5.14963 15.9977C5.05414 15.8801 4.96041 15.7612 4.86849 15.6411C2.33258 12.3465 1.42133 7.80287 3.44838 4.0714L1.65112 6.24226C-0.65081 9.3931 -0.364242 13.4929 1.39419 16.8411C1.43594 16.9214 1.47998 17.0003 1.52297 17.0793L1.60542 17.2301L1.65655 17.317L1.74818 17.4732C1.80286 17.5649 1.8588 17.6561 1.9162 17.7474L2.01179 17.8976C2.07524 17.9952 2.14015 18.0916 2.20673 18.1878L2.2898 18.3099C2.38122 18.4401 2.47514 18.5701 2.57198 18.6977L2.58012 18.7076L2.62771 18.7689C2.7112 18.8788 2.79761 18.9873 2.88485 19.0947L2.98148 19.212C3.05934 19.3052 3.13844 19.3978 3.21921 19.49L3.31 19.5934C3.41832 19.7151 3.52868 19.8352 3.64103 19.9536L3.64771 19.9602L3.66065 19.9737C3.77102 20.0878 3.88318 20.2004 3.9971 20.3114L4.10501 20.415C4.19329 20.4996 4.28304 20.5829 4.37362 20.6658L4.48341 20.7652C4.60446 20.8739 4.72677 20.9805 4.85158 21.0846L4.85743 21.089L4.9215 21.1411C5.03129 21.2317 5.14316 21.3218 5.25608 21.41L5.39467 21.5152C5.48671 21.5856 5.5798 21.6547 5.67351 21.7227L5.82253 21.8307C5.92585 21.9032 6.03021 21.9746 6.1354 22.0443L6.24936 22.1213L6.28067 22.1425C6.38043 22.2079 6.4825 22.271 6.58456 22.334L6.71605 22.4175C6.87238 22.5117 7.03121 22.6049 7.19151 22.6949L7.323 22.7655C7.44115 22.8305 7.5602 22.8941 7.68011 22.9561C7.74523 22.9895 7.81202 23.0211 7.87756 23.0531C7.9625 23.0955 8.04683 23.1384 8.13323 23.1796L8.1923 23.2068L8.29687 23.2549C8.43066 23.3157 8.56549 23.3756 8.70178 23.4332L8.78735 23.4698C8.94358 23.5349 9.10105 23.5972 9.25968 23.6568L9.37468 23.7C9.52162 23.7538 9.67064 23.8071 9.82029 23.8572L9.87623 23.8757C10.0403 23.9304 10.2062 23.981 10.3732 24.0305L10.4932 24.0647C10.6631 24.1134 10.8309 24.1717 11.0062 24.2025C22.139 26.136 25.3728 17.831 25.3728 17.831C22.6566 21.2011 17.8356 22.0901 13.2679 21.1003ZM9.25759 12.507C9.50701 12.8475 9.78356 13.2526 10.1144 13.5261C10.2354 13.6524 10.36 13.7755 10.488 13.8954L10.5865 13.9879C10.7108 14.1032 10.8381 14.2158 10.968 14.3254L10.9835 14.3381L10.9872 14.3417C11.1327 14.4623 11.2812 14.5794 11.4328 14.6929L11.5339 14.7681C11.6863 14.8799 11.8417 14.988 11.9999 15.0923L12.0135 15.102C12.0836 15.1481 12.1552 15.1911 12.2264 15.2356L12.327 15.299C12.4405 15.3684 12.5557 15.436 12.6726 15.5008L12.7215 15.5278C12.8223 15.5831 12.9245 15.6375 13.0268 15.6904L13.1355 15.7443C13.2063 15.7794 13.2771 15.8154 13.3493 15.8496L13.3816 15.8635C13.5281 15.9323 13.6761 15.9987 13.8274 16.0613L13.926 16.0999C14.0468 16.1491 14.1685 16.1962 14.2912 16.241L14.4477 16.2957C14.559 16.335 14.6707 16.3708 14.7834 16.4068L14.9351 16.4531C15.0952 16.5004 15.2534 16.5602 15.4202 16.5867C24.0157 17.9429 26 11.6399 26 11.6399C24.2113 14.0934 20.747 15.2642 17.0504 14.3502C16.887 14.3093 16.7247 14.2646 16.5635 14.2163L16.4174 14.1711C16.3031 14.1359 16.1896 14.0987 16.0768 14.0594L15.9232 14.005C15.8002 13.96 15.678 13.913 15.5567 13.8642L15.4579 13.8245C15.3068 13.7618 15.1573 13.6956 15.0096 13.6259C14.9336 13.5907 14.8591 13.5535 14.7846 13.517L14.6548 13.4533C14.559 13.4039 14.4642 13.3529 14.3703 13.3003L14.3023 13.2635C14.1861 13.1989 14.0713 13.1321 13.9579 13.0631L13.8539 12.9971C13.7791 12.951 13.7047 12.9041 13.6308 12.8566C13.4733 12.7522 13.3184 12.6443 13.1662 12.533L13.0617 12.4545C11.4437 11.238 10.1611 9.57498 9.55126 7.68957C8.91217 5.73438 9.05013 3.53947 10.1572 1.75802L8.79695 3.58678C7.13202 5.86836 7.2226 8.92279 8.52124 11.3358C8.73843 11.7417 8.98445 12.133 9.25759 12.507ZM18.3174 9.68451C18.3881 9.70935 18.4589 9.73162 18.5307 9.75487L18.6248 9.7833C18.7258 9.81351 18.8264 9.8487 18.931 9.86758C23.677 10.741 24.9646 7.54804 25.3071 7.07792C24.1794 8.62422 22.2844 8.99534 19.9591 8.45784C19.7754 8.4155 19.5734 8.35229 19.3964 8.29246C19.169 8.21553 18.946 8.12735 18.7283 8.02828C18.3152 7.83891 17.9228 7.61091 17.557 7.34767C15.4763 5.84391 14.1837 2.97574 15.5414 0.639893L14.8067 1.60417C13.8254 2.97971 13.7289 4.68801 14.41 6.20708C15.1282 7.81957 16.5998 9.08439 18.3174 9.68451Z" fill="white"/>
</svg>
