<svg width="227" height="66" viewBox="0 0 227 66" fill="none" xmlns="http://www.w3.org/2000/svg">
<path d="M73.905 31V6.5H84.51C86.7033 6.5 88.5933 6.86167 90.18 7.585C91.7667 8.285 92.9917 9.3 93.855 10.63C94.7183 11.96 95.15 13.5467 95.15 15.39C95.15 17.21 94.7183 18.785 93.855 20.115C92.9917 21.445 91.7667 22.4717 90.18 23.195C88.5933 23.895 86.7033 24.245 84.51 24.245H77.055L79.575 21.69V31H73.905ZM79.575 22.32L77.055 19.625H84.195C85.945 19.625 87.2517 19.2517 88.115 18.505C88.9783 17.7583 89.41 16.72 89.41 15.39C89.41 14.0367 88.9783 12.9867 88.115 12.24C87.2517 11.4933 85.945 11.12 84.195 11.12H77.055L79.575 8.425V22.32ZM106.969 31.28C104.962 31.28 103.177 30.86 101.614 30.02C100.074 29.18 98.8488 28.0367 97.9388 26.59C97.0521 25.12 96.6088 23.4517 96.6088 21.585C96.6088 19.695 97.0521 18.0267 97.9388 16.58C98.8488 15.11 100.074 13.9667 101.614 13.15C103.177 12.31 104.962 11.89 106.969 11.89C108.952 11.89 110.725 12.31 112.289 13.15C113.852 13.9667 115.077 15.0983 115.964 16.545C116.85 17.9917 117.294 19.6717 117.294 21.585C117.294 23.4517 116.85 25.12 115.964 26.59C115.077 28.0367 113.852 29.18 112.289 30.02C110.725 30.86 108.952 31.28 106.969 31.28ZM106.969 26.8C107.879 26.8 108.695 26.59 109.419 26.17C110.142 25.75 110.714 25.155 111.134 24.385C111.554 23.5917 111.764 22.6583 111.764 21.585C111.764 20.4883 111.554 19.555 111.134 18.785C110.714 18.015 110.142 17.42 109.419 17C108.695 16.58 107.879 16.37 106.969 16.37C106.059 16.37 105.242 16.58 104.519 17C103.795 17.42 103.212 18.015 102.769 18.785C102.349 19.555 102.139 20.4883 102.139 21.585C102.139 22.6583 102.349 23.5917 102.769 24.385C103.212 25.155 103.795 25.75 104.519 26.17C105.242 26.59 106.059 26.8 106.969 26.8ZM120.173 31V12.17H125.388V17.49L124.653 15.95C125.213 14.62 126.112 13.6167 127.348 12.94C128.585 12.24 130.09 11.89 131.863 11.89V16.93C131.63 16.9067 131.42 16.895 131.233 16.895C131.047 16.8717 130.848 16.86 130.638 16.86C129.145 16.86 127.932 17.2917 126.998 18.155C126.088 18.995 125.633 20.3133 125.633 22.11V31H120.173ZM142.689 31.28C140.473 31.28 138.746 30.72 137.509 29.6C136.273 28.4567 135.654 26.765 135.654 24.525V8.005H141.114V24.455C141.114 25.2483 141.324 25.8667 141.744 26.31C142.164 26.73 142.736 26.94 143.459 26.94C144.323 26.94 145.058 26.7067 145.664 26.24L147.134 30.09C146.574 30.4867 145.898 30.79 145.104 31C144.334 31.1867 143.529 31.28 142.689 31.28ZM132.749 16.79V12.59H145.804V16.79H132.749ZM150.094 31V11.75C150.094 9.62667 150.724 7.935 151.984 6.675C153.244 5.39166 155.041 4.75 157.374 4.75C158.168 4.75 158.926 4.83166 159.649 4.995C160.396 5.15833 161.026 5.415 161.539 5.765L160.104 9.72C159.801 9.51 159.463 9.34667 159.089 9.23C158.716 9.11333 158.319 9.055 157.899 9.055C157.106 9.055 156.488 9.28833 156.044 9.755C155.624 10.1983 155.414 10.875 155.414 11.785V13.535L155.554 15.88V31H150.094ZM147.189 16.79V12.59H160.244V16.79H147.189ZM170.915 31.28C168.908 31.28 167.123 30.86 165.56 30.02C164.02 29.18 162.795 28.0367 161.885 26.59C160.998 25.12 160.555 23.4517 160.555 21.585C160.555 19.695 160.998 18.0267 161.885 16.58C162.795 15.11 164.02 13.9667 165.56 13.15C167.123 12.31 168.908 11.89 170.915 11.89C172.898 11.89 174.672 12.31 176.235 13.15C177.798 13.9667 179.023 15.0983 179.91 16.545C180.797 17.9917 181.24 19.6717 181.24 21.585C181.24 23.4517 180.797 25.12 179.91 26.59C179.023 28.0367 177.798 29.18 176.235 30.02C174.672 30.86 172.898 31.28 170.915 31.28ZM170.915 26.8C171.825 26.8 172.642 26.59 173.365 26.17C174.088 25.75 174.66 25.155 175.08 24.385C175.5 23.5917 175.71 22.6583 175.71 21.585C175.71 20.4883 175.5 19.555 175.08 18.785C174.66 18.015 174.088 17.42 173.365 17C172.642 16.58 171.825 16.37 170.915 16.37C170.005 16.37 169.188 16.58 168.465 17C167.742 17.42 167.158 18.015 166.715 18.785C166.295 19.555 166.085 20.4883 166.085 21.585C166.085 22.6583 166.295 23.5917 166.715 24.385C167.158 25.155 167.742 25.75 168.465 26.17C169.188 26.59 170.005 26.8 170.915 26.8ZM184.12 31V5.03H189.58V31H184.12ZM193.877 31V12.17H199.337V31H193.877ZM196.607 9.545C195.604 9.545 194.787 9.25333 194.157 8.67C193.527 8.08667 193.212 7.36333 193.212 6.5C193.212 5.63666 193.527 4.91333 194.157 4.33C194.787 3.74666 195.604 3.455 196.607 3.455C197.61 3.455 198.427 3.735 199.057 4.295C199.687 4.83167 200.002 5.53167 200.002 6.395C200.002 7.305 199.687 8.06333 199.057 8.67C198.45 9.25333 197.634 9.545 196.607 9.545ZM212.594 31.28C210.588 31.28 208.803 30.86 207.239 30.02C205.699 29.18 204.474 28.0367 203.564 26.59C202.678 25.12 202.234 23.4517 202.234 21.585C202.234 19.695 202.678 18.0267 203.564 16.58C204.474 15.11 205.699 13.9667 207.239 13.15C208.803 12.31 210.588 11.89 212.594 11.89C214.578 11.89 216.351 12.31 217.914 13.15C219.478 13.9667 220.703 15.0983 221.589 16.545C222.476 17.9917 222.919 19.6717 222.919 21.585C222.919 23.4517 222.476 25.12 221.589 26.59C220.703 28.0367 219.478 29.18 217.914 30.02C216.351 30.86 214.578 31.28 212.594 31.28ZM212.594 26.8C213.504 26.8 214.321 26.59 215.044 26.17C215.768 25.75 216.339 25.155 216.759 24.385C217.179 23.5917 217.389 22.6583 217.389 21.585C217.389 20.4883 217.179 19.555 216.759 18.785C216.339 18.015 215.768 17.42 215.044 17C214.321 16.58 213.504 16.37 212.594 16.37C211.684 16.37 210.868 16.58 210.144 17C209.421 17.42 208.838 18.015 208.394 18.785C207.974 19.555 207.764 20.4883 207.764 21.585C207.764 22.6583 207.974 23.5917 208.394 24.385C208.838 25.155 209.421 25.75 210.144 26.17C210.868 26.59 211.684 26.8 212.594 26.8ZM90.705 39.5H96.375V64H90.705V39.5ZM79.575 64H73.905V39.5H79.575V64ZM91.125 53.955H79.155V49.16H91.125V53.955ZM108.962 64.28C107.398 64.28 105.998 63.9767 104.762 63.37C103.548 62.7633 102.603 61.8417 101.927 60.605C101.25 59.345 100.912 57.7467 100.912 55.81V45.17H106.372V55.005C106.372 56.5683 106.698 57.7233 107.352 58.47C108.028 59.1933 108.973 59.555 110.187 59.555C111.027 59.555 111.773 59.38 112.427 59.03C113.08 58.6567 113.593 58.0967 113.967 57.35C114.34 56.58 114.527 55.6233 114.527 54.48V45.17H119.987V64H114.807V58.82L115.752 60.325C115.122 61.6317 114.188 62.6233 112.952 63.3C111.738 63.9533 110.408 64.28 108.962 64.28ZM135.405 64.28C133.748 64.28 132.325 63.93 131.135 63.23C129.945 62.53 129.035 61.4683 128.405 60.045C127.775 58.5983 127.46 56.7783 127.46 54.585C127.46 52.3683 127.787 50.5483 128.44 49.125C129.117 47.7017 130.05 46.64 131.24 45.94C132.43 45.24 133.818 44.89 135.405 44.89C137.178 44.89 138.765 45.2867 140.165 46.08C141.588 46.8733 142.708 47.9933 143.525 49.44C144.365 50.8867 144.785 52.6017 144.785 54.585C144.785 56.545 144.365 58.2483 143.525 59.695C142.708 61.1417 141.588 62.2733 140.165 63.09C138.765 63.8833 137.178 64.28 135.405 64.28ZM124.275 64V38.03H129.735V48.985L129.385 54.55L129.49 60.15V64H124.275ZM134.46 59.8C135.37 59.8 136.175 59.59 136.875 59.17C137.598 58.75 138.17 58.155 138.59 57.385C139.033 56.5917 139.255 55.6583 139.255 54.585C139.255 53.4883 139.033 52.555 138.59 51.785C138.17 51.015 137.598 50.42 136.875 50C136.175 49.58 135.37 49.37 134.46 49.37C133.55 49.37 132.733 49.58 132.01 50C131.287 50.42 130.715 51.015 130.295 51.785C129.875 52.555 129.665 53.4883 129.665 54.585C129.665 55.6583 129.875 56.5917 130.295 57.385C130.715 58.155 131.287 58.75 132.01 59.17C132.733 59.59 133.55 59.8 134.46 59.8Z" fill="white"/>
<rect width="66" height="66" fill="#121313"/>
<path d="M31.4118 19L6 32.8966L37.7647 50L60 31.8276L31.4118 19Z" fill="white" stroke="white"/>
<circle cx="38.5" cy="22.5" r="5.5" fill="#D9D9D9"/>
<circle cx="23" cy="18" r="3" fill="#EBEBEB"/>
<circle cx="49" cy="21" r="2" fill="#DFDFDF"/>
</svg>
